<svg
width="24"
height="22"
viewBox="0 0 24 22"
fill="none"
xmlns="http://www.w3.org/2000/svg"
>
<path
    d="M2.66667 2.66666C1.19583 2.66666 0 3.8625 0 5.33333V16C0 17.4708 1.19583 18.6667 2.66667 18.6667H21.3333C22.8042 18.6667 24 17.4708 24 16V5.33333C24 3.8625 22.8042 2.66666 21.3333 2.66666H2.66667ZM5.33333 16H2.66667V13.3333C4.1375 13.3333 5.33333 14.5292 5.33333 16ZM2.66667 8V5.33333H5.33333C5.33333 6.80416 4.1375 8 2.66667 8ZM18.6667 16C18.6667 14.5292 19.8625 13.3333 21.3333 13.3333V16H18.6667ZM21.3333 8C19.8625 8 18.6667 6.80416 18.6667 5.33333H21.3333V8ZM12 14.6667C9.79167 14.6667 8 12.875 8 10.6667C8 8.45833 9.79167 6.66666 12 6.66666C14.2083 6.66666 16 8.45833 16 10.6667C16 12.875 14.2083 14.6667 12 14.6667Z"
    fill="#E2F2F7"
/>
</svg>